<svg width="235" height="46" viewBox="0 0 235 46" fill="none" xmlns="http://www.w3.org/2000/svg">
<g clip-path="url(#clip0_1763_2856)">
<path d="M31.9991 0.914062H17.1691L5.17167 9.39558L0.589844 23.117L5.17167 36.8397L17.1691 45.3199H31.9991L43.9965 36.8397L48.5798 23.117L43.9965 9.39558L31.9991 0.914062Z" fill="white"/>
<path d="M31.387 2.74707H17.7818L6.77476 10.5284L2.57031 23.1169L6.77476 35.7068L17.7818 43.4867H31.387L42.394 35.7068L46.5985 23.1169L42.394 10.5284L31.387 2.74707Z" stroke="#1836B2" stroke-miterlimit="10"/>
<path d="M16.051 8.18359L33.1367 8.26412L33.2602 29.3041C33.1914 30.1872 32.9712 31.5699 32.215 33.0781C31.7409 34.0226 30.8584 35.7233 28.8579 36.9066C26.3496 38.3889 23.7921 38.0395 23.1075 37.9235C20.16 37.4239 18.478 35.5663 17.9631 34.9794C17.4595 34.4048 15.6933 32.3929 15.9275 29.8132C15.9837 29.1908 16.1281 27.5966 17.2476 27.1626C17.9786 26.8801 19.0419 27.1216 19.5582 27.886C19.9538 28.4688 20.1376 29.5157 19.4488 30.0548C18.8904 30.4916 17.9617 30.4384 17.3304 29.8405C17.329 30.1886 17.3613 31.6763 18.5131 32.7055C19.7139 33.7769 21.309 33.6172 22.1213 33.5367C22.6319 33.4862 23.6701 33.3702 24.6773 32.6672C26.5249 31.3801 26.7269 29.1963 26.755 28.8264C26.9037 26.7709 26.8252 25.0593 26.7115 23.8172C26.5319 21.8545 26.4225 20.6015 25.7758 19.025C25.3704 18.0368 24.7278 16.5204 23.1889 15.1432C21.6261 13.7442 19.9622 13.2269 19.0349 12.9485C17.8481 12.5922 16.8128 12.4776 16.0903 12.4394L16.051 8.18359Z" fill="url(#paint0_radial_1763_2856)"/>
<path d="M21.8631 21.73C22.5124 21.73 23.0387 21.2179 23.0387 20.5862C23.0387 19.9545 22.5124 19.4424 21.8631 19.4424C21.2138 19.4424 20.6875 19.9545 20.6875 20.5862C20.6875 21.2179 21.2138 21.73 21.8631 21.73Z" fill="#1836B2"/>
</g>
<path d="M64.654 21.68C63.85 21.68 63.106 21.524 62.422 21.212C61.75 20.9 61.198 20.45 60.766 19.862L62.098 18.26C62.446 18.74 62.824 19.1 63.232 19.34C63.652 19.58 64.108 19.7 64.6 19.7C65.908 19.7 66.562 18.926 66.562 17.378V10.862H62.08V8.9H68.902V17.252C68.902 18.74 68.536 19.85 67.804 20.582C67.084 21.314 66.034 21.68 64.654 21.68ZM76.0362 21.626C75.2202 21.626 74.5002 21.476 73.8762 21.176C73.2522 20.864 72.7662 20.396 72.4182 19.772C72.0702 19.136 71.8962 18.338 71.8962 17.378V11.888H74.1462V17.072C74.1462 17.936 74.3382 18.584 74.7222 19.016C75.1182 19.436 75.6762 19.646 76.3962 19.646C76.9242 19.646 77.3802 19.538 77.7642 19.322C78.1602 19.106 78.4662 18.782 78.6822 18.35C78.9102 17.918 79.0242 17.384 79.0242 16.748V11.888H81.2742V21.5H79.1322V18.908L79.5102 19.7C79.1862 20.324 78.7122 20.804 78.0882 21.14C77.4642 21.464 76.7802 21.626 76.0362 21.626ZM96.3521 11.78C97.1201 11.78 97.7981 11.93 98.3861 12.23C98.9861 12.53 99.4541 12.992 99.7901 13.616C100.126 14.228 100.294 15.02 100.294 15.992V21.5H98.0441V16.28C98.0441 15.428 97.8581 14.792 97.4861 14.372C97.1141 13.952 96.5801 13.742 95.8841 13.742C95.3921 13.742 94.9541 13.85 94.5701 14.066C94.1981 14.282 93.9041 14.6 93.6881 15.02C93.4841 15.44 93.3821 15.974 93.3821 16.622V21.5H91.1321V16.28C91.1321 15.428 90.9461 14.792 90.5741 14.372C90.2021 13.952 89.6681 13.742 88.9721 13.742C88.4801 13.742 88.0421 13.85 87.6581 14.066C87.2861 14.282 86.9921 14.6 86.7761 15.02C86.5721 15.44 86.4701 15.974 86.4701 16.622V21.5H84.2201V11.888H86.3621V14.444L85.9841 13.688C86.3081 13.064 86.7761 12.59 87.3881 12.266C88.0121 11.942 88.7201 11.78 89.5121 11.78C90.4121 11.78 91.1921 12.002 91.8521 12.446C92.5241 12.89 92.9681 13.562 93.1841 14.462L92.3021 14.156C92.6141 13.436 93.1301 12.86 93.8501 12.428C94.5701 11.996 95.4041 11.78 96.3521 11.78ZM108.497 21.626C107.681 21.626 106.955 21.446 106.319 21.086C105.683 20.726 105.179 20.186 104.807 19.466C104.447 18.734 104.267 17.81 104.267 16.694C104.267 15.566 104.453 14.642 104.825 13.922C105.209 13.202 105.719 12.668 106.355 12.32C107.003 11.96 107.717 11.78 108.497 11.78C109.445 11.78 110.279 11.984 110.999 12.392C111.731 12.8 112.307 13.37 112.727 14.102C113.159 14.834 113.375 15.698 113.375 16.694C113.375 17.69 113.159 18.554 112.727 19.286C112.307 20.018 111.731 20.594 110.999 21.014C110.279 21.422 109.445 21.626 108.497 21.626ZM103.169 21.5V8.144H105.419V14.12L105.239 16.676L105.311 19.232V21.5H103.169ZM108.245 19.7C108.785 19.7 109.265 19.58 109.685 19.34C110.117 19.1 110.459 18.752 110.711 18.296C110.963 17.84 111.089 17.306 111.089 16.694C111.089 16.07 110.963 15.536 110.711 15.092C110.459 14.636 110.117 14.288 109.685 14.048C109.265 13.808 108.785 13.688 108.245 13.688C107.705 13.688 107.219 13.808 106.787 14.048C106.355 14.288 106.013 14.636 105.761 15.092C105.509 15.536 105.383 16.07 105.383 16.694C105.383 17.306 105.509 17.84 105.761 18.296C106.013 18.752 106.355 19.1 106.787 19.34C107.219 19.58 107.705 19.7 108.245 19.7ZM119.829 21.626C118.845 21.626 117.969 21.416 117.201 20.996C116.433 20.564 115.827 19.976 115.383 19.232C114.939 18.488 114.717 17.642 114.717 16.694C114.717 15.734 114.939 14.888 115.383 14.156C115.827 13.412 116.433 12.83 117.201 12.41C117.969 11.99 118.845 11.78 119.829 11.78C120.825 11.78 121.707 11.99 122.475 12.41C123.255 12.83 123.861 13.406 124.293 14.138C124.737 14.87 124.959 15.722 124.959 16.694C124.959 17.642 124.737 18.488 124.293 19.232C123.861 19.976 123.255 20.564 122.475 20.996C121.707 21.416 120.825 21.626 119.829 21.626ZM119.829 19.7C120.381 19.7 120.873 19.58 121.305 19.34C121.737 19.1 122.073 18.752 122.313 18.296C122.565 17.84 122.691 17.306 122.691 16.694C122.691 16.07 122.565 15.536 122.313 15.092C122.073 14.636 121.737 14.288 121.305 14.048C120.873 13.808 120.387 13.688 119.847 13.688C119.295 13.688 118.803 13.808 118.371 14.048C117.951 14.288 117.615 14.636 117.363 15.092C117.111 15.536 116.985 16.07 116.985 16.694C116.985 17.306 117.111 17.84 117.363 18.296C117.615 18.752 117.951 19.1 118.371 19.34C118.803 19.58 119.289 19.7 119.829 19.7ZM132.301 21.5V8.9H138.205C139.717 8.9 140.869 9.2 141.661 9.8C142.453 10.388 142.849 11.18 142.849 12.176C142.849 12.848 142.693 13.424 142.381 13.904C142.069 14.372 141.649 14.738 141.121 15.002C140.605 15.254 140.041 15.38 139.429 15.38L139.753 14.732C140.461 14.732 141.097 14.864 141.661 15.128C142.225 15.38 142.669 15.752 142.993 16.244C143.329 16.736 143.497 17.348 143.497 18.08C143.497 19.16 143.083 20 142.255 20.6C141.427 21.2 140.197 21.5 138.565 21.5H132.301ZM134.641 19.664H138.421C139.297 19.664 139.969 19.52 140.437 19.232C140.905 18.944 141.139 18.482 141.139 17.846C141.139 17.222 140.905 16.766 140.437 16.478C139.969 16.178 139.297 16.028 138.421 16.028H134.461V14.21H137.953C138.769 14.21 139.393 14.066 139.825 13.778C140.269 13.49 140.491 13.058 140.491 12.482C140.491 11.894 140.269 11.456 139.825 11.168C139.393 10.88 138.769 10.736 137.953 10.736H134.641V19.664ZM145.779 21.5V8.144H148.029V21.5H145.779ZM155.302 21.626C154.318 21.626 153.442 21.416 152.674 20.996C151.906 20.564 151.3 19.976 150.856 19.232C150.412 18.488 150.19 17.642 150.19 16.694C150.19 15.734 150.412 14.888 150.856 14.156C151.3 13.412 151.906 12.83 152.674 12.41C153.442 11.99 154.318 11.78 155.302 11.78C156.298 11.78 157.18 11.99 157.948 12.41C158.728 12.83 159.334 13.406 159.766 14.138C160.21 14.87 160.432 15.722 160.432 16.694C160.432 17.642 160.21 18.488 159.766 19.232C159.334 19.976 158.728 20.564 157.948 20.996C157.18 21.416 156.298 21.626 155.302 21.626ZM155.302 19.7C155.854 19.7 156.346 19.58 156.778 19.34C157.21 19.1 157.546 18.752 157.786 18.296C158.038 17.84 158.164 17.306 158.164 16.694C158.164 16.07 158.038 15.536 157.786 15.092C157.546 14.636 157.21 14.288 156.778 14.048C156.346 13.808 155.86 13.688 155.32 13.688C154.768 13.688 154.276 13.808 153.844 14.048C153.424 14.288 153.088 14.636 152.836 15.092C152.584 15.536 152.458 16.07 152.458 16.694C152.458 17.306 152.584 17.84 152.836 18.296C153.088 18.752 153.424 19.1 153.844 19.34C154.276 19.58 154.762 19.7 155.302 19.7ZM166.993 21.626C165.985 21.626 165.085 21.416 164.293 20.996C163.513 20.564 162.901 19.976 162.457 19.232C162.013 18.488 161.791 17.642 161.791 16.694C161.791 15.734 162.013 14.888 162.457 14.156C162.901 13.412 163.513 12.83 164.293 12.41C165.085 11.99 165.985 11.78 166.993 11.78C167.929 11.78 168.751 11.972 169.459 12.356C170.179 12.728 170.725 13.28 171.097 14.012L169.369 15.02C169.081 14.564 168.727 14.228 168.307 14.012C167.899 13.796 167.455 13.688 166.975 13.688C166.423 13.688 165.925 13.808 165.481 14.048C165.037 14.288 164.689 14.636 164.437 15.092C164.185 15.536 164.059 16.07 164.059 16.694C164.059 17.318 164.185 17.858 164.437 18.314C164.689 18.758 165.037 19.1 165.481 19.34C165.925 19.58 166.423 19.7 166.975 19.7C167.455 19.7 167.899 19.592 168.307 19.376C168.727 19.16 169.081 18.824 169.369 18.368L171.097 19.376C170.725 20.096 170.179 20.654 169.459 21.05C168.751 21.434 167.929 21.626 166.993 21.626ZM174.791 19.358L174.845 16.532L179.867 11.888H182.567L178.301 16.172L177.113 17.162L174.791 19.358ZM172.955 21.5V8.144H175.205V21.5H172.955ZM180.209 21.5L176.699 17.162L178.121 15.362L182.945 21.5H180.209ZM188.404 21.626C187.396 21.626 186.496 21.416 185.704 20.996C184.924 20.564 184.312 19.976 183.868 19.232C183.424 18.488 183.202 17.642 183.202 16.694C183.202 15.734 183.424 14.888 183.868 14.156C184.312 13.412 184.924 12.83 185.704 12.41C186.496 11.99 187.396 11.78 188.404 11.78C189.34 11.78 190.162 11.972 190.87 12.356C191.59 12.728 192.136 13.28 192.508 14.012L190.78 15.02C190.492 14.564 190.138 14.228 189.718 14.012C189.31 13.796 188.866 13.688 188.386 13.688C187.834 13.688 187.336 13.808 186.892 14.048C186.448 14.288 186.1 14.636 185.848 15.092C185.596 15.536 185.47 16.07 185.47 16.694C185.47 17.318 185.596 17.858 185.848 18.314C186.1 18.758 186.448 19.1 186.892 19.34C187.336 19.58 187.834 19.7 188.386 19.7C188.866 19.7 189.31 19.592 189.718 19.376C190.138 19.16 190.492 18.824 190.78 18.368L192.508 19.376C192.136 20.096 191.59 20.654 190.87 21.05C190.162 21.434 189.34 21.626 188.404 21.626ZM199.819 11.78C200.587 11.78 201.271 11.93 201.871 12.23C202.483 12.53 202.963 12.992 203.311 13.616C203.659 14.228 203.833 15.02 203.833 15.992V21.5H201.583V16.28C201.583 15.428 201.379 14.792 200.971 14.372C200.575 13.952 200.017 13.742 199.297 13.742C198.769 13.742 198.301 13.85 197.893 14.066C197.485 14.282 197.167 14.606 196.939 15.038C196.723 15.458 196.615 15.992 196.615 16.64V21.5H194.365V8.144H196.615V14.48L196.129 13.688C196.465 13.076 196.951 12.608 197.587 12.284C198.235 11.948 198.979 11.78 199.819 11.78ZM212.609 21.5V19.556L212.483 19.142V15.74C212.483 15.08 212.285 14.57 211.889 14.21C211.493 13.838 210.893 13.652 210.089 13.652C209.549 13.652 209.015 13.736 208.487 13.904C207.971 14.072 207.533 14.306 207.173 14.606L206.291 12.968C206.807 12.572 207.419 12.278 208.127 12.086C208.847 11.882 209.591 11.78 210.359 11.78C211.751 11.78 212.825 12.116 213.581 12.788C214.349 13.448 214.733 14.474 214.733 15.866V21.5H212.609ZM209.585 21.626C208.865 21.626 208.235 21.506 207.695 21.266C207.155 21.014 206.735 20.672 206.435 20.24C206.147 19.796 206.003 19.298 206.003 18.746C206.003 18.206 206.129 17.72 206.381 17.288C206.645 16.856 207.071 16.514 207.659 16.262C208.247 16.01 209.027 15.884 209.999 15.884H212.789V17.378H210.161C209.393 17.378 208.877 17.504 208.613 17.756C208.349 17.996 208.217 18.296 208.217 18.656C208.217 19.064 208.379 19.388 208.703 19.628C209.027 19.868 209.477 19.988 210.053 19.988C210.605 19.988 211.097 19.862 211.529 19.61C211.973 19.358 212.291 18.986 212.483 18.494L212.861 19.844C212.645 20.408 212.255 20.846 211.691 21.158C211.139 21.47 210.437 21.626 209.585 21.626ZM217.621 21.5V11.888H219.871V21.5H217.621ZM218.755 10.304C218.335 10.304 217.987 10.172 217.711 9.908C217.447 9.644 217.315 9.326 217.315 8.954C217.315 8.57 217.447 8.252 217.711 8C217.987 7.736 218.335 7.604 218.755 7.604C219.175 7.604 219.517 7.73 219.781 7.982C220.057 8.222 220.195 8.528 220.195 8.9C220.195 9.296 220.063 9.632 219.799 9.908C219.535 10.172 219.187 10.304 218.755 10.304ZM228.278 11.78C229.046 11.78 229.73 11.93 230.33 12.23C230.942 12.53 231.422 12.992 231.77 13.616C232.118 14.228 232.292 15.02 232.292 15.992V21.5H230.042V16.28C230.042 15.428 229.838 14.792 229.43 14.372C229.034 13.952 228.476 13.742 227.756 13.742C227.228 13.742 226.76 13.85 226.352 14.066C225.944 14.282 225.626 14.606 225.398 15.038C225.182 15.458 225.074 15.992 225.074 16.64V21.5H222.824V11.888H224.966V14.48L224.588 13.688C224.924 13.076 225.41 12.608 226.046 12.284C226.694 11.948 227.438 11.78 228.278 11.78Z" fill="white"/>
<path d="M68.854 32.668C68.854 33.1627 68.7373 33.6293 68.504 34.068C68.2707 34.5067 67.8973 34.866 67.384 35.146C66.8707 35.4167 66.2127 35.552 65.41 35.552H63.646V39.5H62.05V29.77H65.41C66.1567 29.77 66.7867 29.9007 67.3 30.162C67.8227 30.414 68.21 30.7593 68.462 31.198C68.7233 31.6367 68.854 32.1267 68.854 32.668ZM65.41 34.25C66.0167 34.25 66.4693 34.1147 66.768 33.844C67.0667 33.564 67.216 33.172 67.216 32.668C67.216 31.604 66.614 31.072 65.41 31.072H63.646V34.25H65.41ZM73.7222 39.626C72.9942 39.626 72.3362 39.4627 71.7482 39.136C71.1602 38.8 70.6982 38.3333 70.3622 37.736C70.0262 37.1293 69.8582 36.4293 69.8582 35.636C69.8582 34.852 70.0308 34.1567 70.3762 33.55C70.7215 32.9433 71.1928 32.4767 71.7902 32.15C72.3875 31.8233 73.0548 31.66 73.7922 31.66C74.5295 31.66 75.1968 31.8233 75.7942 32.15C76.3915 32.4767 76.8628 32.9433 77.2082 33.55C77.5535 34.1567 77.7262 34.852 77.7262 35.636C77.7262 36.42 77.5488 37.1153 77.1942 37.722C76.8395 38.3287 76.3542 38.8 75.7382 39.136C75.1315 39.4627 74.4595 39.626 73.7222 39.626ZM73.7222 38.24C74.1328 38.24 74.5155 38.142 74.8702 37.946C75.2342 37.75 75.5282 37.456 75.7522 37.064C75.9762 36.672 76.0882 36.196 76.0882 35.636C76.0882 35.076 75.9808 34.6047 75.7662 34.222C75.5515 33.83 75.2668 33.536 74.9122 33.34C74.5575 33.144 74.1748 33.046 73.7642 33.046C73.3535 33.046 72.9708 33.144 72.6162 33.34C72.2708 33.536 71.9955 33.83 71.7902 34.222C71.5848 34.6047 71.4822 35.076 71.4822 35.636C71.4822 36.4667 71.6922 37.1107 72.1122 37.568C72.5415 38.016 73.0782 38.24 73.7222 38.24ZM89.6639 31.786L87.2699 39.5H85.5899L84.0359 33.802L82.4819 39.5H80.8019L78.3939 31.786H80.0179L81.6279 37.988L83.2659 31.786H84.9319L86.4999 37.96L88.0959 31.786H89.6639ZM97.9266 35.454C97.9266 35.7433 97.908 36.0047 97.8706 36.238H91.9766C92.0233 36.854 92.252 37.3487 92.6626 37.722C93.0733 38.0953 93.5773 38.282 94.1746 38.282C95.0333 38.282 95.64 37.9227 95.9946 37.204H97.7166C97.4833 37.9133 97.0586 38.4967 96.4426 38.954C95.836 39.402 95.08 39.626 94.1746 39.626C93.4373 39.626 92.7746 39.4627 92.1866 39.136C91.608 38.8 91.1506 38.3333 90.8146 37.736C90.488 37.1293 90.3246 36.4293 90.3246 35.636C90.3246 34.8427 90.4833 34.1473 90.8006 33.55C91.1273 32.9433 91.58 32.4767 92.1586 32.15C92.7466 31.8233 93.4186 31.66 94.1746 31.66C94.9026 31.66 95.5513 31.8187 96.1206 32.136C96.69 32.4533 97.1333 32.9013 97.4506 33.48C97.768 34.0493 97.9266 34.7073 97.9266 35.454ZM96.2606 34.95C96.2513 34.362 96.0413 33.8907 95.6306 33.536C95.22 33.1813 94.7113 33.004 94.1046 33.004C93.554 33.004 93.0826 33.1813 92.6906 33.536C92.2986 33.8813 92.0653 34.3527 91.9906 34.95H96.2606ZM101.093 32.906C101.327 32.514 101.635 32.2107 102.017 31.996C102.409 31.772 102.871 31.66 103.403 31.66V33.312H102.997C102.372 33.312 101.896 33.4707 101.569 33.788C101.252 34.1053 101.093 34.656 101.093 35.44V39.5H99.4973V31.786H101.093V32.906ZM111.94 35.454C111.94 35.7433 111.922 36.0047 111.884 36.238H105.99C106.037 36.854 106.266 37.3487 106.676 37.722C107.087 38.0953 107.591 38.282 108.188 38.282C109.047 38.282 109.654 37.9227 110.008 37.204H111.73C111.497 37.9133 111.072 38.4967 110.456 38.954C109.85 39.402 109.094 39.626 108.188 39.626C107.451 39.626 106.788 39.4627 106.2 39.136C105.622 38.8 105.164 38.3333 104.828 37.736C104.502 37.1293 104.338 36.4293 104.338 35.636C104.338 34.8427 104.497 34.1473 104.814 33.55C105.141 32.9433 105.594 32.4767 106.172 32.15C106.76 31.8233 107.432 31.66 108.188 31.66C108.916 31.66 109.565 31.8187 110.134 32.136C110.704 32.4533 111.147 32.9013 111.464 33.48C111.782 34.0493 111.94 34.7073 111.94 35.454ZM110.274 34.95C110.265 34.362 110.055 33.8907 109.644 33.536C109.234 33.1813 108.725 33.004 108.118 33.004C107.568 33.004 107.096 33.1813 106.704 33.536C106.312 33.8813 106.079 34.3527 106.004 34.95H110.274ZM112.979 35.608C112.979 34.8333 113.138 34.1473 113.455 33.55C113.782 32.9527 114.22 32.4907 114.771 32.164C115.331 31.828 115.952 31.66 116.633 31.66C117.137 31.66 117.632 31.772 118.117 31.996C118.612 32.2107 119.004 32.5 119.293 32.864V29.14H120.903V39.5H119.293V38.338C119.032 38.7113 118.668 39.0193 118.201 39.262C117.744 39.5047 117.216 39.626 116.619 39.626C115.947 39.626 115.331 39.458 114.771 39.122C114.22 38.7767 113.782 38.3007 113.455 37.694C113.138 37.078 112.979 36.3827 112.979 35.608ZM119.293 35.636C119.293 35.104 119.181 34.642 118.957 34.25C118.742 33.858 118.458 33.5593 118.103 33.354C117.748 33.1487 117.366 33.046 116.955 33.046C116.544 33.046 116.162 33.1487 115.807 33.354C115.452 33.55 115.163 33.844 114.939 34.236C114.724 34.6187 114.617 35.076 114.617 35.608C114.617 36.14 114.724 36.6067 114.939 37.008C115.163 37.4093 115.452 37.7173 115.807 37.932C116.171 38.1373 116.554 38.24 116.955 38.24C117.366 38.24 117.748 38.1373 118.103 37.932C118.458 37.7267 118.742 37.428 118.957 37.036C119.181 36.6347 119.293 36.168 119.293 35.636ZM131.844 34.502C132.367 34.5953 132.81 34.8707 133.174 35.328C133.538 35.7853 133.72 36.3033 133.72 36.882C133.72 37.3767 133.589 37.8247 133.328 38.226C133.076 38.618 132.707 38.9307 132.222 39.164C131.737 39.388 131.172 39.5 130.528 39.5H126.636V29.77H130.346C131.009 29.77 131.578 29.882 132.054 30.106C132.53 30.33 132.889 30.6333 133.132 31.016C133.375 31.3893 133.496 31.8093 133.496 32.276C133.496 32.836 133.347 33.3027 133.048 33.676C132.749 34.0493 132.348 34.3247 131.844 34.502ZM128.232 33.858H130.206C130.729 33.858 131.135 33.7413 131.424 33.508C131.723 33.2653 131.872 32.92 131.872 32.472C131.872 32.0333 131.723 31.6927 131.424 31.45C131.135 31.198 130.729 31.072 130.206 31.072H128.232V33.858ZM130.388 38.198C130.929 38.198 131.354 38.0673 131.662 37.806C131.97 37.5447 132.124 37.1807 132.124 36.714C132.124 36.238 131.961 35.86 131.634 35.58C131.307 35.3 130.873 35.16 130.332 35.16H128.232V38.198H130.388ZM142.398 31.786L137.666 43.126H136.014L137.582 39.374L134.544 31.786H136.322L138.492 37.666L140.746 31.786H142.398ZM150.417 29.77C151.453 29.77 152.359 29.9707 153.133 30.372C153.917 30.764 154.519 31.3333 154.939 32.08C155.369 32.8173 155.583 33.6807 155.583 34.67C155.583 35.6593 155.369 36.518 154.939 37.246C154.519 37.974 153.917 38.534 153.133 38.926C152.359 39.3087 151.453 39.5 150.417 39.5H147.239V29.77H150.417ZM150.417 38.198C151.556 38.198 152.429 37.89 153.035 37.274C153.642 36.658 153.945 35.79 153.945 34.67C153.945 33.5407 153.642 32.6587 153.035 32.024C152.429 31.3893 151.556 31.072 150.417 31.072H148.835V38.198H150.417ZM157.977 30.764C157.688 30.764 157.445 30.666 157.249 30.47C157.053 30.274 156.955 30.0313 156.955 29.742C156.955 29.4527 157.053 29.21 157.249 29.014C157.445 28.818 157.688 28.72 157.977 28.72C158.257 28.72 158.495 28.818 158.691 29.014C158.887 29.21 158.985 29.4527 158.985 29.742C158.985 30.0313 158.887 30.274 158.691 30.47C158.495 30.666 158.257 30.764 157.977 30.764ZM158.761 31.786V39.5H157.165V31.786H158.761ZM163.965 31.66C164.562 31.66 165.089 31.7813 165.547 32.024C166.013 32.2573 166.377 32.5513 166.639 32.906V31.786H168.249V39.626C168.249 40.3353 168.099 40.9653 167.801 41.516C167.502 42.076 167.068 42.5147 166.499 42.832C165.939 43.1493 165.267 43.308 164.483 43.308C163.437 43.308 162.569 43.0607 161.879 42.566C161.188 42.0807 160.796 41.418 160.703 40.578H162.285C162.406 40.9793 162.663 41.3013 163.055 41.544C163.456 41.796 163.932 41.922 164.483 41.922C165.127 41.922 165.645 41.726 166.037 41.334C166.438 40.942 166.639 40.3727 166.639 39.626V38.338C166.368 38.702 165.999 39.01 165.533 39.262C165.075 39.5047 164.553 39.626 163.965 39.626C163.293 39.626 162.677 39.458 162.117 39.122C161.566 38.7767 161.127 38.3007 160.801 37.694C160.483 37.078 160.325 36.3827 160.325 35.608C160.325 34.8333 160.483 34.1473 160.801 33.55C161.127 32.9527 161.566 32.4907 162.117 32.164C162.677 31.828 163.293 31.66 163.965 31.66ZM166.639 35.636C166.639 35.104 166.527 34.642 166.303 34.25C166.088 33.858 165.803 33.5593 165.449 33.354C165.094 33.1487 164.711 33.046 164.301 33.046C163.89 33.046 163.507 33.1487 163.153 33.354C162.798 33.55 162.509 33.844 162.285 34.236C162.07 34.6187 161.963 35.076 161.963 35.608C161.963 36.14 162.07 36.6067 162.285 37.008C162.509 37.4093 162.798 37.7173 163.153 37.932C163.517 38.1373 163.899 38.24 164.301 38.24C164.711 38.24 165.094 38.1373 165.449 37.932C165.803 37.7267 166.088 37.428 166.303 37.036C166.527 36.6347 166.639 36.168 166.639 35.636ZM171.157 30.764C170.868 30.764 170.625 30.666 170.429 30.47C170.233 30.274 170.135 30.0313 170.135 29.742C170.135 29.4527 170.233 29.21 170.429 29.014C170.625 28.818 170.868 28.72 171.157 28.72C171.437 28.72 171.675 28.818 171.871 29.014C172.067 29.21 172.165 29.4527 172.165 29.742C172.165 30.0313 172.067 30.274 171.871 30.47C171.675 30.666 171.437 30.764 171.157 30.764ZM171.941 31.786V39.5H170.345V31.786H171.941ZM173.616 30.75V29.294H176.528V39.5H174.918V30.75H173.616ZM180.709 36.728C180.802 37.1947 181.003 37.5493 181.311 37.792C181.619 38.0347 182.034 38.156 182.557 38.156C183.22 38.156 183.705 37.8947 184.013 37.372C184.321 36.8493 184.475 35.958 184.475 34.698C184.251 35.0153 183.934 35.2627 183.523 35.44C183.122 35.608 182.683 35.692 182.207 35.692C181.6 35.692 181.05 35.5707 180.555 35.328C180.06 35.076 179.668 34.7073 179.379 34.222C179.099 33.7273 178.959 33.13 178.959 32.43C178.959 31.4033 179.258 30.5867 179.855 29.98C180.462 29.364 181.292 29.056 182.347 29.056C183.616 29.056 184.517 29.4807 185.049 30.33C185.59 31.17 185.861 32.4627 185.861 34.208C185.861 35.412 185.758 36.3967 185.553 37.162C185.357 37.9273 185.012 38.506 184.517 38.898C184.022 39.29 183.336 39.486 182.459 39.486C181.46 39.486 180.69 39.2247 180.149 38.702C179.608 38.1793 179.304 37.5213 179.239 36.728H180.709ZM182.487 34.348C183.047 34.348 183.486 34.1753 183.803 33.83C184.13 33.4753 184.293 33.0087 184.293 32.43C184.293 31.786 184.12 31.2867 183.775 30.932C183.439 30.568 182.977 30.386 182.389 30.386C181.801 30.386 181.334 30.5727 180.989 30.946C180.653 31.31 180.485 31.7907 180.485 32.388C180.485 32.9573 180.648 33.4287 180.975 33.802C181.311 34.166 181.815 34.348 182.487 34.348ZM194.188 30.666H189.498V33.452C189.694 33.1907 189.983 32.9713 190.366 32.794C190.758 32.6167 191.173 32.528 191.612 32.528C192.396 32.528 193.03 32.696 193.516 33.032C194.01 33.368 194.36 33.7927 194.566 34.306C194.78 34.8193 194.888 35.3607 194.888 35.93C194.888 36.6207 194.752 37.2367 194.482 37.778C194.22 38.31 193.824 38.73 193.292 39.038C192.769 39.346 192.125 39.5 191.36 39.5C190.342 39.5 189.526 39.248 188.91 38.744C188.294 38.24 187.925 37.5727 187.804 36.742H189.358C189.46 37.1807 189.689 37.5307 190.044 37.792C190.398 38.044 190.842 38.17 191.374 38.17C192.036 38.17 192.531 37.9693 192.858 37.568C193.194 37.1667 193.362 36.6347 193.362 35.972C193.362 35.3 193.194 34.7867 192.858 34.432C192.522 34.068 192.027 33.886 191.374 33.886C190.916 33.886 190.529 34.0027 190.212 34.236C189.904 34.46 189.68 34.768 189.54 35.16H188.028V29.266H194.188V30.666Z" fill="white"/>
<defs>
<radialGradient id="paint0_radial_1763_2856" cx="0" cy="0" r="1" gradientUnits="userSpaceOnUse" gradientTransform="translate(24.8694 25.483) scale(28.7318 27.9539)">
<stop stop-color="#1836B2"/>
<stop offset="0.0040322" stop-color="#1936B2"/>
<stop offset="0.1581" stop-color="#4245BA"/>
<stop offset="0.3161" stop-color="#6451C1"/>
<stop offset="0.4765" stop-color="#7E5AC6"/>
<stop offset="0.6403" stop-color="#9161C9"/>
<stop offset="0.8096" stop-color="#9C65CB"/>
<stop offset="0.9931" stop-color="#A066CC"/>
</radialGradient>
<clipPath id="clip0_1763_2856">
<rect width="49" height="46" fill="white"/>
</clipPath>
</defs>
</svg>
